
  <svg width="498" height="104.25" viewBox="0 0 2656 556" fill="none" xmlns="http://www.w3.org/2000/svg" xmlns:xlink="http://www.w3.org/1999/xlink" version="1.1">
    
        <g transform="translate(0, 0)">
          <svg xmlns="http://www.w3.org/2000/svg" width="256" height="256" fill="none" viewBox="0 0 256 256"><rect width="256" height="256" fill="#F03C2E" rx="60"/><g clip-path="url(#clip0_7_283)"><path fill="#fff" d="M224.225 119.094L136.906 31.775C135.711 30.5787 134.291 29.6298 132.729 28.9824C131.166 28.3349 129.491 28.0017 127.8 28.0017C126.109 28.0017 124.434 28.3349 122.871 28.9824C121.309 29.6298 119.889 30.5787 118.694 31.775L100.569 49.9L123.569 72.9C128.919 71.025 135.044 72.3062 139.306 76.5687C141.335 78.6014 142.752 81.1638 143.394 83.9632C144.036 86.7626 143.878 89.6862 142.937 92.4L165.106 114.569C170.469 112.719 176.656 113.912 180.937 118.206C182.361 119.63 183.49 121.32 184.26 123.18C185.03 125.04 185.426 127.033 185.426 129.046C185.425 131.059 185.029 133.052 184.258 134.912C183.487 136.771 182.358 138.461 180.934 139.884C179.511 141.308 177.821 142.436 175.961 143.206C174.101 143.977 172.108 144.373 170.095 144.372C168.082 144.372 166.088 143.975 164.229 143.205C162.369 142.434 160.679 141.305 159.256 139.881C154.756 135.381 153.644 128.756 155.919 123.212L135.244 102.537V156.944C136.745 157.686 138.116 158.666 139.306 159.844C140.729 161.267 141.858 162.956 142.629 164.816C143.399 166.675 143.795 168.668 143.795 170.681C143.795 172.694 143.399 174.687 142.629 176.546C141.858 178.406 140.729 180.096 139.306 181.519C137.883 182.942 136.193 184.071 134.334 184.841C132.474 185.611 130.481 186.008 128.469 186.008C126.456 186.008 124.463 185.611 122.604 184.841C120.744 184.071 119.054 182.942 117.631 181.519C116.206 180.096 115.076 178.407 114.305 176.548C113.533 174.688 113.136 172.694 113.136 170.681C113.136 168.668 113.533 166.675 114.305 164.815C115.076 162.955 116.206 161.266 117.631 159.844C119.112 158.369 120.756 157.25 122.65 156.5V101.587C120.825 100.837 119.112 99.7312 117.631 98.2437C115.479 96.0943 114.016 93.3526 113.428 90.3684C112.841 87.3841 113.155 84.2924 114.331 81.4875L91.6437 58.8125L31.7687 118.625C30.5716 119.821 29.6219 121.241 28.9739 122.804C28.3259 124.367 27.9924 126.042 27.9924 127.734C27.9924 129.426 28.3259 131.102 28.9739 132.665C29.6219 134.228 30.5716 135.648 31.7687 136.844L119.094 224.156C120.289 225.352 121.709 226.301 123.271 226.949C124.834 227.596 126.509 227.929 128.2 227.929C129.891 227.929 131.566 227.596 133.129 226.949C134.691 226.301 136.111 225.352 137.306 224.156L224.225 137.375C225.422 136.179 226.372 134.759 227.02 133.196C227.668 131.633 228.001 129.958 228.001 128.266C228.001 126.574 227.668 124.898 227.02 123.335C226.372 121.772 225.422 120.352 224.225 119.156"/></g><defs><clipPath id="clip0_7_283"><rect width="200" height="200" fill="#fff" transform="translate(28 28)"/></clipPath></defs></svg>
        </g>
         
        <g transform="translate(300, 0)">
          <svg xmlns="http://www.w3.org/2000/svg" width="256" height="256" fill="none" viewBox="0 0 256 256"><rect width="256" height="256" fill="#2396ED" rx="60"/><path fill="#fff" d="M141.187 122.123H161.904V103.379H141.187V122.123ZM116.525 122.123H137.241V103.379H116.525V122.123ZM92.3554 122.123H113.072V103.379H92.3554V122.123ZM68.1859 122.123H88.4093V103.379H68.1859V122.123ZM43.5233 122.123H64.2399V103.379H43.5233V122.123ZM68.1859 99.4333H88.4093V80.6896H68.1859V99.4333ZM92.3554 99.4333H113.072V80.6896H92.3554V99.4333ZM116.525 99.4333H137.241V80.6896H116.525V99.4333ZM116.525 76.7436H137.241V58H116.525V76.7436ZM228 113.738C228 113.738 219.121 105.352 200.871 108.312C198.898 94.0075 183.607 85.6222 183.607 85.6222C183.607 85.6222 169.303 102.886 179.661 122.123C176.702 123.603 171.769 125.576 164.37 125.576H28.7257C26.2594 134.948 26.2594 197.097 94.3284 197.097C143.16 197.097 179.661 174.408 196.925 132.974C222.574 134.948 228 113.738 228 113.738Z"/></svg>
        </g>
         
        <g transform="translate(600, 0)">
          <svg xmlns="http://www.w3.org/2000/svg" width="256" height="256" fill="none" viewBox="0 0 256 256"><rect width="256" height="256" fill="#326CE5" rx="60"/><path fill="#fff" stroke="#fff" stroke-width=".11" d="M128.073 30C124.796 30.2304 122.313 33.0377 122.484 36.3143V37.9185C122.637 39.736 122.91 41.5364 123.269 43.3198C123.792 46.7349 123.98 50.1928 123.832 53.6446C123.507 54.7794 122.859 55.8034 121.972 56.5884L121.844 58.9947C118.388 59.2848 114.958 59.8138 111.579 60.5818C97.3628 63.7901 84.4184 71.1625 74.4264 81.7859L72.3785 80.3353C71.2522 80.6767 70.0405 80.5487 69.0081 79.994C66.2384 77.9441 63.675 75.6293 61.3541 73.0824C60.1883 71.6894 58.9432 70.3646 57.6252 69.1146L56.3624 68.1078C55.236 67.2033 53.8537 66.6828 52.4117 66.6145C51.5511 66.5689 50.6919 66.7275 49.9045 67.0775C49.117 67.4275 48.4235 67.9589 47.8807 68.6283C45.9523 71.3332 46.5837 75.0791 49.2801 77.0161L50.4576 77.9547C51.9734 78.9632 53.546 79.8834 55.1678 80.7108C58.1884 82.3918 61.0384 84.3629 63.6836 86.6838C64.3602 87.6487 64.7533 88.7837 64.8184 89.9604L66.6786 91.667C56.6354 106.736 52.514 124.988 55.091 142.915L52.7018 143.598C52.0789 144.588 51.2512 145.433 50.2614 146.055C46.928 146.946 43.5158 147.509 40.0731 147.736C38.2461 147.774 36.4227 147.916 34.6121 148.163L33.1018 148.504H32.9311C31.883 148.65 30.8958 149.083 30.0795 149.757C29.2632 150.43 28.6497 151.316 28.3074 152.318C27.9651 153.319 27.9074 154.396 28.1407 155.428C28.374 156.46 28.8892 157.407 29.6289 158.164C30.3755 158.916 31.3168 159.447 32.3475 159.695C33.3781 159.944 34.4577 159.901 35.4654 159.571H35.5763L37.1122 159.401C38.8444 158.889 40.551 158.257 42.2149 157.541C45.4147 156.261 48.734 155.279 52.1301 154.64C53.3076 154.708 54.4339 155.109 55.3896 155.791L57.9495 155.365C63.4958 172.576 75.1517 187.158 90.7157 196.348L89.6746 198.524C90.1525 199.522 90.3317 200.632 90.1866 201.732C88.7787 204.992 87.0551 208.115 85.0413 211.05C83.9366 212.506 82.9167 214.025 81.9865 215.598L81.2612 217.134C80.735 218.047 80.4713 219.088 80.4992 220.141C80.5271 221.194 80.8456 222.219 81.4194 223.103C81.9932 223.987 82.8001 224.695 83.751 225.149C84.7018 225.603 85.7596 225.785 86.8076 225.676C87.858 225.557 88.8551 225.15 89.6881 224.5C90.5211 223.849 91.1574 222.98 91.5263 221.989L92.2345 220.539C92.883 218.832 93.4291 217.091 93.8728 215.334C95.3831 211.605 96.2023 207.603 98.2672 205.128C98.9421 204.494 99.7926 204.078 100.708 203.934L101.988 201.604C118.859 208.089 137.528 208.135 154.431 201.732L155.565 203.908C156.726 204.079 157.767 204.719 158.467 205.657C160.071 208.712 161.368 211.912 162.358 215.214C162.809 216.982 163.362 218.723 164.013 220.428L164.721 221.878C165.094 222.865 165.732 223.73 166.565 224.376C167.398 225.023 168.394 225.426 169.443 225.542C170.491 225.658 171.551 225.481 172.505 225.032C173.46 224.583 174.271 223.878 174.85 222.996C175.423 222.109 175.739 221.081 175.763 220.025C175.787 218.969 175.518 217.927 174.986 217.015L174.244 215.479C173.314 213.911 172.294 212.398 171.189 210.948C169.227 208.115 167.537 205.094 166.069 201.929C165.932 201.35 165.913 200.749 166.013 200.163C166.113 199.577 166.329 199.016 166.65 198.515C166.286 197.771 165.969 197.005 165.702 196.22C181.232 186.962 192.837 172.328 198.324 155.092L200.747 155.518C201.617 154.725 202.761 154.307 203.93 154.341C207.317 154.989 210.636 156.047 213.845 157.242C215.509 158.01 217.215 158.658 218.947 159.205C219.357 159.316 219.954 159.409 220.415 159.52H220.526C221.533 159.846 222.611 159.885 223.639 159.634C224.667 159.383 225.605 158.851 226.349 158.099C227.093 157.346 227.614 156.401 227.853 155.37C228.091 154.339 228.039 153.262 227.702 152.259C227.357 151.257 226.741 150.37 225.921 149.698C225.101 149.026 224.111 148.595 223.06 148.453L221.405 148.061C219.594 147.814 217.771 147.671 215.944 147.634C212.497 147.412 209.084 146.849 205.756 145.953C204.732 145.381 203.878 144.528 203.298 143.496L200.994 142.813C203.451 124.894 199.242 106.697 189.168 91.6755L191.182 89.8154C191.096 88.6464 191.48 87.4859 192.24 86.5899C194.859 84.3373 197.701 82.3491 200.687 80.6511C202.309 79.8233 203.881 78.9031 205.397 77.8949L206.643 76.8881C207.56 76.3188 208.298 75.5014 208.77 74.5305C209.242 73.5596 209.429 72.4749 209.311 71.4019C209.192 70.3289 208.772 69.3114 208.099 68.4672C207.426 67.623 206.528 66.9866 205.508 66.6316C204.49 66.277 203.391 66.2178 202.34 66.4609C201.29 66.704 200.329 67.2394 199.569 68.0054L198.307 69.0122C196.989 70.2625 195.744 71.5873 194.578 72.98C192.325 75.5569 189.833 77.9035 187.128 80.0026C186.037 80.447 184.843 80.577 183.681 80.378L181.522 81.9139C169.064 68.8587 152.28 60.7524 134.293 59.1312C134.293 58.2779 134.182 56.998 134.165 56.5969C133.201 55.9314 132.527 54.916 132.305 53.764C132.186 50.3181 132.404 46.8688 132.953 43.4649C133.32 41.673 133.576 39.8811 133.738 38.0636V36.357C133.909 33.0804 131.434 30.2731 128.149 30.0427L128.073 30ZM120.956 74.0808L119.25 103.886H119.122C119.036 105.729 117.953 107.299 116.289 108.187C114.625 109.074 112.654 108.81 111.169 107.726L86.7223 90.4041C94.5034 82.7615 104.265 77.4447 114.906 75.0535C116.903 74.6269 118.917 74.3026 120.939 74.0808H120.956ZM135.189 74.0808C148.031 75.6764 159.985 81.4446 169.235 90.498L145.019 107.709C143.526 108.903 141.478 109.142 139.745 108.323C138.013 107.504 136.904 105.763 136.878 103.852L135.189 74.0808ZM77.8481 101.616L100.204 121.566V121.694C101.595 122.906 102.201 124.792 101.791 126.592C101.382 128.392 99.9994 129.817 98.2331 130.304V130.389L69.5456 138.64C68.1261 125.716 71.0502 112.686 77.8566 101.608L77.8481 101.616ZM178.135 101.616C184.927 112.666 187.931 125.628 186.685 138.538L157.955 130.261V130.15C156.163 129.664 154.797 128.239 154.396 126.438C153.995 124.638 154.593 122.769 155.984 121.541L178.169 101.685L178.135 101.616ZM123.49 123.119H132.638L138.227 130.218L136.196 139.093L127.979 143.043L119.744 139.093L117.807 130.218L123.49 123.119ZM152.792 147.335C153.176 147.293 153.646 147.293 153.944 147.335L183.528 152.327C179.261 164.614 170.839 175.11 159.849 182.132L148.415 154.452C148.1 153.709 147.969 152.902 148.032 152.098C148.094 151.294 148.349 150.517 148.775 149.832C149.201 149.147 149.785 148.574 150.478 148.162C151.171 147.75 151.953 147.51 152.758 147.463L152.792 147.335ZM103.105 147.463C104.778 147.489 106.322 148.351 107.235 149.75C108.148 151.15 108.293 152.907 107.636 154.443V154.554L96.2706 182.013C85.3912 175.042 77.1313 164.674 72.7369 152.515L102.064 147.54C102.389 147.506 102.721 147.506 103.054 147.54L103.105 147.463ZM127.885 159.409C128.817 159.38 129.739 159.61 130.548 160.074C131.357 160.538 132.022 161.218 132.467 162.037H132.578L147.033 188.122L141.256 189.829C130.624 192.261 119.523 191.689 109.189 188.174L123.695 162.089C124.574 160.553 126.195 159.614 127.962 159.571L127.885 159.409Z"/></svg>
        </g>
         
        <g transform="translate(900, 0)">
          <svg xmlns="http://www.w3.org/2000/svg" width="256" height="256" fill="none" viewBox="0 0 256 256"><rect width="256" height="256" fill="#242938" rx="60"/><path fill="url(#paint0_linear_2_47)" d="M127.279 29C76.5066 29 79.6772 51.018 79.6772 51.018L79.7338 73.8284H128.185V80.6772H60.4893C60.4893 80.6772 28 76.9926 28 128.222C28 179.452 56.3573 177.636 56.3573 177.636H73.2812V153.863C73.2812 153.863 72.369 125.506 101.186 125.506H149.24C149.24 125.506 176.239 125.942 176.239 99.4123V55.5461C176.239 55.5461 180.338 29 127.279 29ZM100.563 44.339C105.384 44.339 109.28 48.2351 109.28 53.0556C109.28 57.8761 105.384 61.7723 100.563 61.7723C95.7426 61.7723 91.8465 57.8761 91.8465 53.0556C91.8465 48.2351 95.7426 44.339 100.563 44.339Z"/><path fill="url(#paint1_linear_2_47)" d="M128.721 227.958C179.493 227.958 176.323 205.941 176.323 205.941L176.266 183.13H127.815V176.281H195.511C195.511 176.281 228 179.966 228 128.736C228 77.5062 199.643 79.323 199.643 79.323H182.719V103.096C182.719 103.096 183.631 131.453 154.814 131.453H106.76C106.76 131.453 79.7607 131.016 79.7607 157.546V201.412C79.7607 201.412 75.6615 227.958 128.721 227.958ZM155.437 212.619C150.616 212.619 146.72 208.723 146.72 203.903C146.72 199.082 150.616 195.186 155.437 195.186C160.257 195.186 164.154 199.082 164.154 203.903C164.154 208.723 160.257 212.619 155.437 212.619Z"/><defs><linearGradient id="paint0_linear_2_47" x1="47.22" x2="146.333" y1="46.896" y2="145.02" gradientUnits="userSpaceOnUse"><stop stop-color="#387EB8"/><stop offset="1" stop-color="#366994"/></linearGradient><linearGradient id="paint1_linear_2_47" x1="108.056" x2="214.492" y1="109.905" y2="210.522" gradientUnits="userSpaceOnUse"><stop stop-color="#FFE052"/><stop offset="1" stop-color="#FFC331"/></linearGradient></defs></svg>
        </g>
         
        <g transform="translate(1200, 0)">
          <svg width="256" height="256" viewBox="0 0 256 256" fill="none" xmlns="http://www.w3.org/2000/svg">
<rect width="256" height="256" rx="60" fill="#242938"/>
<path d="M127.999 220.001L165.561 106.809H90.4414L127.999 219.997V220.001Z" fill="#E24329"/>
<path d="M127.999 220.001L90.4413 106.809H37.8003L127.999 219.997V220.001Z" fill="#FC6D26"/>
<path d="M37.8007 106.806L26.3827 141.206C25.3397 144.342 26.4767 147.78 29.2047 149.719L128 220.001L37.8007 106.809V106.806Z" fill="#FCA326"/>
<path d="M37.8003 106.805H90.4413L67.8173 38.6295C66.6533 35.1235 61.5823 35.1235 60.4203 38.6295L37.8003 106.808V106.805Z" fill="#E24329"/>
<path d="M128 220.001L165.562 106.809H218.205L128 219.997V220.001Z" fill="#FC6D26"/>
<path d="M218.203 106.806L229.619 141.206C230.66 144.342 229.519 147.78 226.795 149.719L128 220.001L218.203 106.809V106.806Z" fill="#FCA326"/>
<path d="M218.202 106.805H165.562L188.184 38.6305C189.349 35.1245 194.419 35.1245 195.581 38.6305L218.205 106.808L218.202 106.805Z" fill="#E24329"/>
</svg>

        </g>
         
        <g transform="translate(1500, 0)">
          <svg width="256" height="256" viewBox="0 0 256 256" fill="none" xmlns="http://www.w3.org/2000/svg">
<rect width="256" height="256" rx="60" fill="#242938"/>
<path d="M128.001 30C72.7791 30 28 74.7708 28 130.001C28 174.184 56.6533 211.668 96.3867 224.891C101.384 225.817 103.219 222.722 103.219 220.081C103.219 217.696 103.126 209.819 103.083 201.463C75.2631 207.512 69.3927 189.664 69.3927 189.664C64.8437 178.105 58.2894 175.032 58.2894 175.032C49.2163 168.825 58.9733 168.953 58.9733 168.953C69.0151 169.658 74.3026 179.258 74.3026 179.258C83.2217 194.546 97.6965 190.126 103.403 187.571C104.301 181.107 106.892 176.696 109.752 174.199C87.5405 171.67 64.1913 163.095 64.1913 124.778C64.1913 113.86 68.0977 104.939 74.4947 97.9362C73.4564 95.4175 70.0335 85.2465 75.4635 71.4722C75.4635 71.4722 83.8609 68.7845 102.971 81.7226C110.948 79.5069 119.502 78.3958 128.001 78.3577C136.499 78.3958 145.061 79.5069 153.052 81.7226C172.139 68.7845 180.525 71.4722 180.525 71.4722C185.968 85.2465 182.544 95.4175 181.505 97.9362C187.917 104.939 191.797 113.86 191.797 124.778C191.797 163.187 168.403 171.644 146.135 174.119C149.722 177.223 152.918 183.308 152.918 192.638C152.918 206.018 152.802 216.787 152.802 220.081C152.802 222.742 154.602 225.86 159.671 224.878C199.383 211.64 228 174.169 228 130.001C228 74.7708 183.227 30 128.001 30ZM65.4536 172.453C65.2333 172.95 64.4517 173.099 63.7396 172.758C63.0143 172.432 62.6069 171.754 62.8421 171.256C63.0574 170.744 63.8406 170.602 64.5643 170.945C65.2913 171.271 65.7053 171.955 65.4536 172.453ZM70.3725 176.842C69.8956 177.285 68.9633 177.079 68.3307 176.38C67.6766 175.683 67.554 174.751 68.0376 174.302C68.5294 173.86 69.4336 174.067 70.0893 174.764C70.7434 175.47 70.8709 176.395 70.3725 176.842ZM73.7471 182.458C73.1344 182.884 72.1325 182.485 71.5132 181.595C70.9004 180.706 70.9004 179.64 71.5264 179.212C72.1474 178.785 73.1344 179.169 73.762 180.052C74.373 180.956 74.373 182.023 73.7471 182.458ZM79.4542 188.962C78.9061 189.566 77.7386 189.404 76.8841 188.579C76.0098 187.773 75.7663 186.629 76.3161 186.024C76.8709 185.418 78.045 185.589 78.9061 186.407C79.7738 187.211 80.0387 188.364 79.4542 188.962ZM86.8301 191.157C86.5883 191.941 85.4639 192.297 84.3312 191.964C83.2002 191.621 82.46 190.704 82.6885 189.912C82.9237 189.124 84.053 188.753 85.194 189.109C86.3234 189.45 87.0652 190.361 86.8301 191.157ZM95.2242 192.089C95.2523 192.913 94.2919 193.597 93.1029 193.612C91.9073 193.639 90.9402 192.971 90.9269 192.16C90.9269 191.327 91.8659 190.65 93.0615 190.63C94.2505 190.607 95.2242 191.269 95.2242 192.089ZM103.47 191.773C103.613 192.577 102.787 193.404 101.606 193.624C100.445 193.836 99.3702 193.339 99.2229 192.541C99.0788 191.716 99.92 190.89 101.079 190.676C102.262 190.471 103.32 190.955 103.47 191.773Z" fill="white"/>
</svg>

        </g>
         
        <g transform="translate(1800, 0)">
          <svg width="256" height="256" viewBox="0 0 256 256" fill="none" xmlns="http://www.w3.org/2000/svg">
<rect width="256" height="256" rx="60" fill="#FF6C37"/>
<path d="M169.061 88.6123L118.521 139.153L104.268 124.901C153.971 75.1986 158.882 79.5101 169.061 88.6123Z" fill="#EEEEEE"/>
<path d="M118.521 140.35C118.161 140.35 117.922 140.231 117.682 139.991L103.31 125.739C102.831 125.26 102.831 124.542 103.31 124.063C153.851 73.5211 159.12 78.3118 169.78 87.8932C170.02 88.1328 170.139 88.3724 170.139 88.7317C170.139 89.0911 170.02 89.3306 169.78 89.5694L119.239 139.991C119.12 140.231 118.76 140.35 118.521 140.35ZM105.945 124.901L118.521 137.476L167.265 88.7317C158.403 80.8266 152.414 78.4316 105.945 124.901Z" fill="#FF6C37"/>
<path d="M133.012 153.645L119.239 139.872L169.78 89.3315C183.314 102.984 163.073 125.141 133.012 153.645Z" fill="#EEEEEE"/>
<path d="M133.012 154.843C132.652 154.843 132.414 154.723 132.174 154.483L118.401 140.71C118.161 140.471 118.161 140.231 118.161 139.872C118.161 139.512 118.281 139.273 118.521 139.033L169.061 88.4927C169.54 88.0135 170.259 88.0135 170.738 88.4927C173.852 91.3668 175.529 95.4387 175.409 99.6305C175.17 112.924 160.079 129.811 133.97 154.483C133.611 154.723 133.251 154.843 133.012 154.843ZM120.916 139.872C128.58 147.656 131.815 150.771 133.012 151.968C153.133 132.806 172.654 113.164 172.774 99.6305C172.894 96.5168 171.697 93.4031 169.66 91.0074L120.916 139.872Z" fill="#FF6C37"/>
<path d="M104.508 125.26L114.688 135.44C114.927 135.68 114.927 135.919 114.688 136.159C114.568 136.279 114.568 136.279 114.449 136.279L93.3693 140.83C92.292 140.95 91.3337 140.231 91.0942 139.153C90.9744 138.554 91.214 137.956 91.5733 137.596L103.789 125.38C104.029 125.14 104.388 125.02 104.508 125.26Z" fill="#EEEEEE"/>
<path d="M93.01 142.028C91.214 142.028 89.8963 140.59 89.8963 138.793C89.8963 137.956 90.2557 137.117 90.8546 136.518L103.07 124.302C103.789 123.703 104.748 123.703 105.466 124.302L115.646 134.482C116.364 135.081 116.364 136.159 115.646 136.877C115.406 137.117 115.167 137.237 114.807 137.357L93.7287 141.908C93.4891 141.908 93.2495 142.028 93.01 142.028ZM104.149 126.577L92.4118 138.314C92.1723 138.554 92.0525 138.913 92.292 139.272C92.4118 139.632 92.7704 139.752 93.1298 139.632L112.891 135.32L104.149 126.577Z" fill="#FF6C37"/>
<path d="M195.769 60.5877C188.104 53.1625 175.768 53.4021 168.342 61.1867C160.917 68.9712 161.157 81.1871 168.941 88.6131C175.289 94.7207 184.871 95.7988 192.416 91.2476L178.762 77.5943L195.769 60.5877Z" fill="#EEEEEE"/>
<path d="M182.355 95.1996C170.978 95.1996 161.756 85.9776 161.756 74.6002C161.756 63.222 170.978 54 182.355 54C187.625 54 192.775 56.0364 196.607 59.749C196.847 59.9886 196.967 60.2281 196.967 60.5875C196.967 60.9469 196.847 61.1864 196.607 61.426L180.439 77.5941L193.134 90.2891C193.614 90.7683 193.614 91.487 193.134 91.9661C193.015 92.0859 193.015 92.0859 192.895 92.2057C189.781 94.1215 186.068 95.1996 182.355 95.1996ZM182.355 56.5155C172.295 56.5155 164.151 64.6595 164.271 74.72C164.271 84.7805 172.414 92.9244 182.475 92.8047C185.23 92.8047 187.984 92.2057 190.499 90.888L177.924 78.4326C177.684 78.193 177.565 77.9534 177.565 77.5941C177.565 77.2347 177.684 76.9951 177.924 76.7556L193.973 60.7073C190.739 57.953 186.667 56.5155 182.355 56.5155Z" fill="#FF6C37"/>
<path d="M196.128 60.9471L195.889 60.7075L178.762 77.5943L192.296 91.1279C193.614 90.2894 194.93 89.3319 196.009 88.2538C203.673 80.708 203.673 68.4921 196.128 60.9471Z" fill="#EEEEEE"/>
<path d="M192.416 92.4448C192.056 92.4448 191.817 92.325 191.577 92.0855L177.924 78.4321C177.684 78.1925 177.565 77.953 177.565 77.5936C177.565 77.2342 177.684 76.9947 177.924 76.7551L194.93 59.7485C195.41 59.2694 196.128 59.2694 196.607 59.7485L196.967 59.9881C204.991 68.0122 204.991 80.9469 197.087 89.0916C195.889 90.2887 194.571 91.3667 193.134 92.2053C192.775 92.325 192.536 92.4448 192.416 92.4448ZM180.439 77.5936L192.536 89.6897C193.494 89.0916 194.452 88.2531 195.17 87.5344C201.997 80.7073 202.356 69.5695 195.769 62.3838L180.439 77.5936Z" fill="#FF6C37"/>
<path d="M171.098 90.7674C168.223 87.8933 163.552 87.8933 160.678 90.7674L115.526 135.919L123.072 143.464L170.858 101.547C173.972 98.9113 174.211 94.2404 171.577 91.1267C171.337 91.007 171.217 90.8872 171.098 90.7674Z" fill="#EEEEEE"/>
<path d="M122.952 144.662C122.593 144.662 122.353 144.542 122.113 144.303L114.568 136.758C114.089 136.279 114.089 135.56 114.568 135.081L159.719 89.929C163.073 86.5758 168.462 86.5758 171.816 89.929C175.17 93.283 175.17 98.6719 171.816 102.026C171.697 102.146 171.577 102.265 171.457 102.385L123.67 144.303C123.551 144.542 123.311 144.662 122.952 144.662ZM117.203 135.919L123.072 141.788L170.02 100.588C172.654 98.4323 172.894 94.4801 170.738 91.8456C168.582 89.2111 164.63 88.9715 161.995 91.1269C161.876 91.2467 161.756 91.3664 161.516 91.4862L117.203 135.919Z" fill="#FF6C37"/>
<path d="M80.9139 187.3C80.4347 187.539 80.1951 188.018 80.3149 188.497L82.3513 197.121C82.8305 198.318 82.1117 199.756 80.7941 200.115C79.8358 200.474 78.7585 200.115 78.1596 199.397L64.9854 186.342L107.981 143.346L122.832 143.585L132.892 153.646C130.497 155.682 116.005 169.694 80.9139 187.3Z" fill="#EEEEEE"/>
<path d="M79.9556 201.311C78.9981 201.311 78.0398 200.952 77.4408 200.234L64.3864 187.179C64.1469 186.94 64.0271 186.7 64.0271 186.341C64.0271 185.982 64.1469 185.742 64.3864 185.502L107.382 142.507C107.622 142.267 107.981 142.147 108.221 142.147L123.072 142.387C123.431 142.387 123.67 142.507 123.909 142.746L133.97 152.806C134.21 153.046 134.329 153.405 134.329 153.764C134.329 154.124 134.21 154.363 133.85 154.603L133.012 155.322C120.317 166.459 103.07 177.598 81.6326 188.257L83.669 196.76C84.0275 198.317 83.3096 199.994 81.8722 200.832C81.1534 201.191 80.5545 201.311 79.9556 201.311ZM66.7814 186.341L79.1178 198.557C79.4764 199.156 80.1951 199.395 80.7941 199.036C81.393 198.677 81.6326 197.958 81.2732 197.359L79.2376 188.736C78.9981 187.658 79.4764 186.7 80.4347 186.221C101.633 175.562 118.76 164.544 131.335 153.645L122.473 144.782L108.7 144.542L66.7814 186.341Z" fill="#FF6C37"/>
<path d="M54.8051 196.641L65.1052 186.341L80.4347 201.671L56.0029 199.995C54.9249 199.875 54.2061 198.917 54.3259 197.838C54.3259 197.359 54.4457 196.88 54.8051 196.641Z" fill="#EEEEEE"/>
<path d="M80.4347 202.749L55.8831 201.072C54.0863 200.952 52.8884 199.396 53.0082 197.599C53.128 196.88 53.3676 196.162 53.9665 195.683L64.2666 185.383C64.7458 184.904 65.4645 184.904 65.9429 185.383L81.2732 200.713C81.6326 201.072 81.7524 201.551 81.5128 202.031C81.2732 202.51 80.9139 202.749 80.4347 202.749ZM65.1051 188.018L55.6435 197.479C55.2842 197.719 55.2842 198.318 55.6435 198.557C55.7633 198.677 55.8831 198.797 56.1227 198.797L77.321 200.234L65.1051 188.018Z" fill="#FF6C37"/>
<path d="M103.789 148.855C103.07 148.855 102.591 148.256 102.591 147.657C102.591 147.298 102.711 147.059 102.951 146.819L114.568 135.202C115.047 134.722 115.766 134.722 116.245 135.202L123.79 142.747C124.149 143.106 124.269 143.465 124.149 143.945C124.029 144.304 123.67 144.663 123.192 144.783L104.029 148.855C103.909 148.855 103.789 148.855 103.789 148.855ZM115.406 137.717L107.502 145.622L120.436 142.866L115.406 137.717Z" fill="#FF6C37"/>
<path d="M122.832 143.584L109.658 146.459C108.7 146.699 107.741 146.1 107.502 145.142C107.382 144.543 107.502 143.944 107.981 143.465L115.286 136.159L122.832 143.584Z" fill="#EEEEEE"/>
<path d="M109.418 147.657C107.741 147.657 106.424 146.34 106.424 144.663C106.424 143.825 106.783 143.106 107.262 142.508L114.568 135.202C115.047 134.722 115.766 134.722 116.245 135.202L123.79 142.747C124.149 143.106 124.269 143.465 124.149 143.945C124.029 144.304 123.67 144.663 123.192 144.783L110.017 147.657C109.778 147.657 109.538 147.657 109.418 147.657ZM115.406 137.717L108.939 144.184C108.7 144.424 108.7 144.663 108.819 144.903C108.939 145.142 109.179 145.262 109.538 145.262L120.556 142.866L115.406 137.717Z" fill="#FF6C37"/>
<path d="M196.248 72.4434C196.009 71.7254 195.17 71.3661 194.451 71.6057C193.733 71.8444 193.374 72.6829 193.614 73.4017C193.614 73.5215 193.733 73.6412 193.733 73.761C194.451 75.1985 194.213 76.9945 193.254 78.3121C192.775 78.9111 192.895 79.7496 193.374 80.2287C193.973 80.7071 194.811 80.5881 195.29 79.9892C197.087 77.7132 197.446 74.8391 196.248 72.4434Z" fill="#FF6C37"/>
</svg>

        </g>
         
        <g transform="translate(2100, 0)">
          <svg xmlns="http://www.w3.org/2000/svg" width="256" height="256" fill="none" viewBox="0 0 256 256"><rect width="256" height="256" fill="#E14E1D" rx="60"/><path fill="#fff" d="M48 38L56.6098 134.593H167.32L163.605 176.023L127.959 185.661L92.38 176.037L90.0012 149.435H57.9389L62.5236 200.716L127.951 218.888L193.461 200.716L202.244 102.655H85.8241L82.901 69.9448H205.041H205.139L208 38H48Z"/><path fill="#EBEBEB" d="M128 38H48L56.6098 134.593H128V102.655H85.8241L82.901 69.9448H128V38Z"/><path fill="#EBEBEB" d="M128 185.647L127.959 185.661L92.38 176.037L90.0012 149.435H57.9388L62.5236 200.716L127.951 218.888L128 218.874V185.647Z"/></svg>
        </g>
         
        <g transform="translate(2400, 0)">
          <svg width="256" height="256" viewBox="0 0 256 256" fill="none" xmlns="http://www.w3.org/2000/svg">
<rect width="256" height="256" rx="60" fill="#0277BD"/>
<path d="M53.7527 102.651L56.6155 134.593H128.096V102.651H53.7527Z" fill="#EBEBEB"/>
<path d="M128.095 38H127.985H48L50.9036 69.9423H128.095V38Z" fill="#EBEBEB"/>
<path d="M128.095 218.841V185.608L127.955 185.645L92.3813 176.04L90.1072 150.564H72.821H58.0425L62.5175 200.718L127.948 218.882L128.095 218.841Z" fill="#EBEBEB"/>
<path d="M167.318 134.593L163.61 176.019L127.985 185.635V218.866L193.468 200.718L193.948 195.321L201.454 111.229L202.233 102.651L208 38H127.985V69.9423H172.994L170.088 102.651H127.985V134.593H167.318Z" fill="white"/>
</svg>

        </g>
         
        <g transform="translate(0, 300)">
          <svg xmlns="http://www.w3.org/2000/svg" width="256" height="256" fill="none" viewBox="0 0 256 256"><rect width="256" height="256" fill="#007ACC" rx="60"/><path fill="#fff" d="M56.6112 128.849L56.5299 139.333H73.1902H89.8505L89.8505 186.673V234.012H101.635H113.419V186.673L113.419 139.333H130.079H146.739V129.052C146.739 123.363 146.618 118.609 146.455 118.487C146.333 118.325 126.056 118.243 101.472 118.284L56.7331 118.406L56.6112 128.849Z"/><path fill="#fff" d="M206.567 118.108C213.068 119.734 218.026 122.619 222.577 127.332C224.934 129.852 228.428 134.444 228.713 135.541C228.794 135.866 217.66 143.343 210.915 147.528C210.671 147.691 209.695 146.634 208.598 145.009C205.307 140.214 201.853 138.141 196.57 137.776C188.809 137.247 183.811 141.311 183.852 148.097C183.852 150.088 184.136 151.266 184.949 152.892C186.655 156.427 189.825 158.54 199.781 162.847C218.107 170.731 225.949 175.932 230.826 183.327C236.271 191.576 237.49 204.742 233.792 214.535C229.729 225.181 219.651 232.414 205.469 234.812C201.081 235.584 190.678 235.462 185.965 234.609C175.684 232.78 165.932 227.701 159.918 221.037C157.561 218.436 152.969 211.65 153.254 211.162C153.375 211 154.432 210.35 155.61 209.659C156.748 209.009 161.056 206.53 165.119 204.173L172.474 199.906L174.018 202.182C176.172 205.473 180.885 209.984 183.73 211.487C191.897 215.795 203.113 215.185 208.639 210.228C210.996 208.074 211.971 205.839 211.971 202.548C211.971 199.581 211.605 198.281 210.061 196.046C208.07 193.202 204.007 190.804 192.466 185.806C179.26 180.117 173.571 176.582 168.37 170.974C165.363 167.724 162.518 162.522 161.34 158.174C160.365 154.558 160.121 145.496 160.893 141.839C163.615 129.08 173.246 120.181 187.143 117.539C191.654 116.686 202.137 117.011 206.567 118.108Z"/></svg>
        </g>
         
        <g transform="translate(300, 300)">
          <svg xmlns="http://www.w3.org/2000/svg" width="256" height="256" fill="none" viewBox="0 0 256 256"><rect width="256" height="256" fill="#242938" rx="60"/><path fill="#00D8FF" d="M128.001 146.951C138.305 146.951 146.657 138.598 146.657 128.295C146.657 117.992 138.305 109.639 128.001 109.639C117.698 109.639 109.345 117.992 109.345 128.295C109.345 138.598 117.698 146.951 128.001 146.951Z"/><path fill-rule="evenodd" stroke="#00D8FF" stroke-width="8.911" d="M128.002 90.3633C153.05 90.3633 176.319 93.9575 193.864 99.9976C215.003 107.275 228 118.306 228 128.295C228 138.704 214.226 150.423 191.525 157.944C174.363 163.63 151.779 166.598 128.002 166.598C103.624 166.598 80.5389 163.812 63.1834 157.881C41.2255 150.376 28 138.506 28 128.295C28 118.387 40.4096 107.441 61.2515 100.175C78.8617 94.0353 102.705 90.3633 127.998 90.3633H128.002Z" clip-rule="evenodd"/><path fill-rule="evenodd" stroke="#00D8FF" stroke-width="8.911" d="M94.9811 109.438C107.495 87.7402 122.232 69.3783 136.23 57.1971C153.094 42.5206 169.144 36.7728 177.796 41.7623C186.813 46.9623 190.084 64.7496 185.259 88.1712C181.614 105.879 172.9 126.925 161.021 147.523C148.842 168.641 134.897 187.247 121.09 199.315C103.619 214.587 86.7284 220.114 77.8833 215.013C69.3003 210.067 66.0181 193.846 70.1356 172.161C73.6145 153.838 82.3451 131.349 94.977 109.438L94.9811 109.438Z" clip-rule="evenodd"/><path fill-rule="evenodd" stroke="#00D8FF" stroke-width="8.911" d="M95.0123 147.578C82.4633 125.904 73.9194 103.962 70.3531 85.7517C66.0602 63.8109 69.0954 47.0355 77.7401 42.0315C86.7485 36.8163 103.792 42.866 121.674 58.7437C135.194 70.7479 149.077 88.8052 160.99 109.383C173.204 130.481 182.358 151.856 185.919 169.844C190.425 192.608 186.778 210.001 177.941 215.116C169.367 220.08 153.676 214.825 136.945 200.427C122.809 188.263 107.685 169.468 95.0123 147.578Z" clip-rule="evenodd"/></svg>
        </g>
         
        <g transform="translate(600, 300)">
          <svg width="256" height="256" viewBox="0 0 256 256" fill="none" xmlns="http://www.w3.org/2000/svg">
<g clip-path="url(#clip0_33_628)">
<path d="M196 0H60C26.8629 0 0 26.8629 0 60V196C0 229.137 26.8629 256 60 256H196C229.137 256 256 229.137 256 196V60C256 26.8629 229.137 0 196 0Z" fill="#242938"/>
<g clip-path="url(#clip1_33_628)">
<path d="M127.5 41C119.711 60.0976 114.981 72.6074 106.309 91.1373C111.626 96.7737 118.161 103.313 128.76 110.727C117.365 106.037 109.597 101.342 103.788 96.4565C92.6887 119.617 75.2882 152.594 40 216C67.7284 199.992 89.2239 190.118 109.257 186.349C108.4 182.655 107.942 178.64 107.975 174.472L107.996 173.596C108.436 155.826 117.682 142.163 128.632 143.09C139.582 144.018 148.106 159.18 147.666 176.95C147.583 180.297 147.194 183.513 146.534 186.499C166.351 190.377 187.644 200.207 215 216C209.605 206.068 204.773 197.119 200.175 188.592C192.931 182.978 185.38 175.674 169.968 167.764C180.561 170.516 188.153 173.699 194.065 177.249C147.31 90.2001 143.533 78.6253 127.5 41Z" fill="#1793D1"/>
<path d="M176.755 145.015C138.825 93.5323 130.033 52.0391 127.806 42.1328C148.039 88.8013 147.901 89.3736 176.755 145.015Z" fill="white" fill-opacity="0.16568"/>
<path d="M127.821 41.7482C126.848 44.1402 125.9 46.4614 125.002 48.6696C124.006 51.1157 123.059 53.451 122.118 55.7405C121.177 58.03 120.244 60.2643 119.319 62.4696C118.394 64.6751 117.467 66.8554 116.521 69.0492C115.574 71.243 114.622 73.4596 113.615 75.7143C112.609 77.969 111.558 80.2689 110.454 82.657C109.349 85.0452 108.191 87.5185 106.95 90.1125C106.778 90.4718 106.57 90.8807 106.395 91.2447C111.696 96.8591 118.222 103.356 128.761 110.727C117.395 106.05 109.635 101.372 103.831 96.4998C103.53 97.115 103.266 97.6643 102.956 98.2943C102.547 99.1234 102.056 100.066 101.631 100.922C100.885 102.451 100.106 104.022 99.3027 105.643C98.9939 106.257 98.7229 106.788 98.4054 107.416C93.3329 117.596 87.04 129.782 78.9443 144.928C101.138 132.424 125.076 114.384 168.559 129.911C166.379 125.781 164.375 121.909 162.492 118.268C160.61 114.627 158.861 111.217 157.237 107.993C155.614 104.769 154.113 101.729 152.708 98.8497C151.304 95.9705 150.002 93.2529 148.778 90.6465C147.553 88.0402 146.4 85.5323 145.317 83.127C144.234 80.7218 143.201 78.4175 142.22 76.1415C141.238 73.8654 140.298 71.631 139.378 69.4124C138.459 67.1938 137.561 64.9805 136.665 62.7473C136.345 61.9494 136.025 61.1181 135.704 60.312C133.251 54.553 130.732 48.5855 127.821 41.7482Z" fill="url(#paint0_linear_33_628)"/>
</g>
</g>
<defs>
<linearGradient id="paint0_linear_33_628" x1="127.904" y1="61.7314" x2="104.123" y2="133.77" gradientUnits="userSpaceOnUse">
<stop stop-color="white" stop-opacity="0"/>
<stop offset="1" stop-color="white" stop-opacity="0.27451"/>
</linearGradient>
<clipPath id="clip0_33_628">
<rect width="256" height="256" fill="white"/>
</clipPath>
<clipPath id="clip1_33_628">
<rect width="175" height="175" fill="white" transform="translate(40 41)"/>
</clipPath>
</defs>
</svg>

        </g>
         
        <g transform="translate(900, 300)">
          <svg xmlns="http://www.w3.org/2000/svg" width="256" height="256" fill="none" viewBox="0 0 256 256"><rect width="256" height="256" fill="#242938" rx="60"/><path fill="#2489CA" d="M33.7158 100.208C33.7158 100.208 28.9814 96.795 34.6627 92.2381L47.8994 80.402C47.8994 80.402 51.6869 76.4172 55.6915 79.8891L177.84 172.368V216.714C177.84 216.714 177.781 223.678 168.844 222.908L33.7158 100.208Z"/><path fill="#1070B3" d="M65.1997 128.792L33.7157 157.415C33.7157 157.415 30.4805 159.822 33.7157 164.123L48.3333 177.418C48.3333 177.418 51.8052 181.147 56.9341 176.905L90.3119 151.596L65.1997 128.792Z"/><path fill="#0877B9" d="M120.474 129.029L178.215 84.9391L177.84 40.83C177.84 40.83 175.374 31.2033 167.148 36.2139L90.312 106.145L120.474 129.029Z"/><path fill="#3C99D4" d="M168.844 222.968C172.198 226.4 176.262 225.276 176.262 225.276L221.259 203.103C227.019 199.177 226.21 194.305 226.21 194.305V61.8982C226.21 56.0788 220.252 54.0667 220.252 54.0667L181.253 35.267C172.731 30 167.148 36.2139 167.148 36.2139C167.148 36.2139 174.328 31.0455 177.84 40.83V215.905C177.84 217.109 177.583 218.292 177.071 219.358C176.045 221.429 173.816 223.362 168.47 222.553L168.844 222.968Z"/></svg>
        </g>
         
        <g transform="translate(1200, 300)">
          <svg xmlns="http://www.w3.org/2000/svg" width="256" height="256" fill="none" viewBox="0 0 256 256"><rect width="256" height="256" fill="#242938" rx="60"/><path fill="#336791" d="M203.48 148.688C183.16 152.878 181.684 145.995 181.684 145.995C203.15 114.143 212.129 73.7134 204.38 63.8204C183.259 36.8204 146.689 49.5962 146.077 49.9266L145.88 49.9618C141.414 49.0656 136.873 48.5924 132.317 48.5485C123.12 48.4079 116.145 50.9602 110.844 54.9751C110.844 54.9751 45.6078 28.1016 48.6453 88.7743C49.2922 101.684 67.1375 186.509 88.4422 160.845C96.2891 151.409 103.812 143.484 103.812 143.484C107.539 145.966 112.018 147.232 116.708 146.775L117.073 146.466C116.966 147.681 117.016 148.905 117.221 150.108C111.737 156.239 113.354 157.315 102.385 159.572C91.2898 161.857 97.8148 165.928 102.062 166.997C107.223 168.291 119.162 170.119 127.234 158.827L126.91 160.113C129.062 161.836 130.566 171.314 130.313 179.906C130.06 188.499 129.891 194.391 131.579 199.003C133.266 203.616 134.954 213.98 149.368 210.956C161.413 208.376 167.649 201.675 168.528 190.524C169.147 182.592 170.539 183.759 170.638 176.672L171.763 173.311C173.049 162.553 171.973 159.087 179.391 160.704L181.198 160.866C186.662 161.112 193.813 159.987 198.003 158.039C207.038 153.849 212.396 146.845 203.487 148.688H203.48Z"/><path stroke="#fff" stroke-linecap="round" stroke-linejoin="round" stroke-width="5.034" d="M146.07 48.5961C143.82 49.2993 182.38 34.4985 204.303 62.504C212.038 72.3969 203.073 112.827 181.606 144.678M128.098 153.784C127.536 173.795 128.239 193.946 130.194 198.784C132.148 203.621 136.346 213.198 150.767 210.118C162.812 207.538 167.199 202.538 169.098 191.506L173.548 156.231L128.098 153.784ZM110.816 53.4688C110.816 53.4688 45.5375 26.7782 48.575 87.4508C49.2219 100.36 67.0672 185.185 88.3719 159.521C96.1484 150.148 103.18 142.815 103.18 142.815L110.816 53.4688Z"/><path stroke="#fff" stroke-linecap="round" stroke-linejoin="bevel" stroke-width="5.034" d="M181.613 144.664C181.613 144.664 183.02 151.555 203.41 147.35C212.319 145.508 206.954 152.511 197.926 156.702C190.515 160.147 173.893 161.026 173.619 156.28C172.916 144.01 182.366 147.737 181.684 144.664C181.065 141.894 176.832 139.18 174.048 132.402C171.608 126.495 140.579 81.1438 182.654 87.8727C184.201 87.5563 171.685 47.7946 132.31 47.2181C92.9352 46.6415 94.1797 95.6282 94.1797 95.6282"/><path stroke="#fff" stroke-linejoin="round" stroke-width="5.034" d="M117.08 148.869C111.596 155 113.213 156.076 102.245 158.333C91.1492 160.618 97.6742 164.689 101.921 165.758C107.082 167.052 119.021 168.88 127.093 157.58C129.554 154.135 127.079 148.651 123.704 147.259C122.073 146.584 119.893 145.74 117.095 148.876L117.08 148.869Z"/><path stroke="#fff" stroke-linecap="round" stroke-linejoin="round" stroke-width="5.034" d="M116.722 148.763C116.159 145.156 117.903 140.874 119.766 135.854C122.565 128.331 129.02 120.807 123.859 96.9219C120.013 79.1329 94.1867 93.2165 94.1867 95.6282C94.1867 98.0399 95.3539 107.863 93.7648 119.288C91.6766 134.209 103.257 146.823 116.588 145.536"/><path fill="#fff" stroke="#fff" stroke-width="1.68" d="M110.577 95.2695C110.457 96.0922 112.088 98.293 114.205 98.5883C116.321 98.8836 118.128 97.168 118.248 96.3383C118.367 95.5086 116.736 94.6086 114.62 94.3133C112.503 94.018 110.682 94.4539 110.577 95.2695V95.2695Z"/><path fill="#fff" stroke="#fff" stroke-width=".837" d="M175.011 93.5891C175.123 94.4118 173.499 96.6125 171.383 96.9079C169.266 97.2032 167.445 95.4875 167.34 94.6579C167.234 93.8282 168.852 92.9282 170.968 92.6329C173.084 92.3375 174.905 92.7735 175.011 93.5891Z"/><path stroke="#fff" stroke-linecap="round" stroke-linejoin="round" stroke-width="5.034" d="M182.577 87.8867C182.928 94.3555 181.184 98.75 180.959 105.634C180.636 115.632 185.727 127.079 178.055 138.54"/></svg>
        </g>
         
        <g transform="translate(1500, 300)">
          <svg width="256" height="256" viewBox="0 0 256 256" fill="none" xmlns="http://www.w3.org/2000/svg">
<rect width="256" height="256" rx="60" fill="#242938"/>
<path d="M67.8948 193.68H65.7476C64.8888 202.533 63.6863 213.294 48.57 213.294H41.6131C37.5764 213.294 37.4046 212.687 37.4046 209.823V163.738C37.4046 160.787 37.4046 159.572 45.4781 159.572H48.3124V156.968C45.2204 157.229 37.4905 157.229 33.9691 157.229C30.6195 157.229 23.9202 157.229 21 156.968V159.572H22.9754C29.5888 159.572 29.7606 160.526 29.7606 163.651V209.215C29.7606 212.34 29.5888 213.294 22.9754 213.294H21V215.985H65.5759L67.8948 193.68V193.68Z" fill="white"/>
<path d="M66.4348 156.881C66.0913 155.84 65.9195 155.493 64.8029 155.493C63.6864 155.493 63.4287 155.84 63.0852 156.881L49.2572 192.291C48.656 193.767 47.6253 196.457 42.3003 196.457V198.627H55.6129V196.457C52.9504 196.457 51.3185 195.242 51.3185 193.506C51.3185 193.072 51.4044 192.899 51.5762 192.291L54.4964 184.827H71.5022L74.9377 193.68C75.1095 194.027 75.2813 194.461 75.2813 194.721C75.2813 196.457 72.0175 196.457 70.3857 196.457V198.627H87.3056V196.457H86.1032C82.0664 196.457 81.637 195.85 81.0358 194.114L66.4348 156.881V156.881ZM62.9993 163.043L70.6433 182.658H55.3553L62.9993 163.043V163.043Z" fill="white"/>
<path d="M135.231 157.489H82.9251L81.3792 176.93H83.4405C84.6429 162.956 85.9312 160.092 98.9003 160.092C100.446 160.092 102.679 160.092 103.538 160.266C105.342 160.613 105.342 161.568 105.342 163.564V209.128C105.342 212.079 105.342 213.294 96.3237 213.294H92.8881V215.985C96.4095 215.724 105.084 215.724 109.035 215.724C112.986 215.724 121.832 215.724 125.354 215.985V213.294H121.918C112.9 213.294 112.9 212.079 112.9 209.128V163.564C112.9 161.828 112.9 160.613 114.446 160.266C115.391 160.092 117.71 160.092 119.342 160.092C132.225 160.092 133.513 162.956 134.716 176.93H136.863C136.863 176.93 135.231 157.489 135.231 157.489Z" fill="white"/>
<path d="M181.267 213.207H179.12C176.972 226.486 174.997 232.822 160.31 232.822H148.973C144.936 232.822 144.764 232.214 144.764 229.35V206.264H152.408C160.74 206.264 161.684 209.042 161.684 216.419H163.832V193.506H161.684C161.684 200.883 160.74 203.574 152.408 203.574H144.764V182.831C144.764 179.967 144.936 179.36 148.973 179.36H159.967C173.107 179.36 175.341 184.133 176.715 196.197H178.862C178.862 196.197 176.457 176.756 176.457 176.756H128.36V179.36H130.335C136.949 179.36 137.12 180.314 137.12 183.439V228.743C137.12 231.867 136.949 232.822 130.335 232.822H128.36V235.512H177.66L181.267 213.207V213.207Z" fill="white"/>
<path d="M207.119 182.571L218.886 165.213C220.69 162.436 223.61 159.659 231.254 159.572V156.968H210.812V159.572C214.248 159.659 216.138 161.568 216.138 163.564C216.138 164.432 215.966 164.606 215.365 165.56L205.573 180.141C205.573 180.141 194.58 163.477 194.58 163.477C194.408 163.217 193.978 162.523 193.978 162.175C193.978 161.134 195.868 159.659 199.475 159.572V156.968C196.555 157.229 190.285 157.229 187.022 157.229C184.359 157.229 179.034 157.142 175.856 156.968V159.572H177.488C182.212 159.572 183.844 160.179 185.476 162.609L201.193 186.65L187.193 207.566C185.991 209.302 183.414 213.294 174.825 213.294V215.985H195.267V213.294C191.316 213.208 189.856 210.864 189.856 209.302C189.856 208.521 190.113 208.174 190.715 207.219L202.825 189.08L216.395 209.736C216.567 210.083 216.825 210.43 216.825 210.691C216.825 211.732 214.935 213.208 211.242 213.294V215.985C214.248 215.724 220.518 215.724 223.696 215.724C227.303 215.724 231.254 215.811 234.861 215.985V213.294H233.229C228.763 213.294 226.959 212.86 225.156 210.17L207.119 182.571V182.571Z" fill="white"/>
<path d="M66.7719 20.0002C68.2818 22.7202 69.8515 25.0409 71.4904 27.0521C70.7411 26.9428 69.9691 26.8785 69.1673 26.8869C67.5836 26.9036 65.8906 27.1665 64.0565 27.744C67.257 30.4241 69.9618 32.38 72.3477 33.8874C68.6619 32.7101 64.6927 32.5424 60.0302 34.7547C63.4359 36.8858 66.2945 38.426 68.7965 39.5765C64.896 38.8576 60.8514 39.1851 56.4371 42.0958C59.3516 43.3945 61.872 44.3696 64.1086 45.1107C60.4373 45.239 56.8035 46.3729 53.247 49.7466C56.332 50.512 58.9752 51.0194 61.3003 51.3573C58.4546 51.9323 55.6631 53.2973 52.9577 56.0242C55.0538 56.4771 56.9406 56.8189 58.6674 57.0774C56.5416 58.1049 54.5288 59.6973 52.6892 62.1366C55.1046 62.3242 57.2416 62.4075 59.163 62.4154C56.8382 63.4911 54.662 65.1907 52.7202 67.9187C56.1701 68.0911 59.0519 68.0743 61.5378 67.9289C58.8059 69.0458 56.288 70.933 54.1347 74.1963C58.4223 74.2589 61.818 74.053 64.6659 73.7007C61.1311 74.6604 57.8591 76.5901 55.167 80.6701C58.6305 80.7206 61.5214 80.5946 64.0052 80.3603C60.9687 82.015 58.3608 84.5249 56.6435 88.8064C59.7696 88.2144 62.3895 87.5806 64.6455 86.917C62.2956 88.6271 60.3204 91.029 58.9976 94.6401C61.0948 94.1765 62.956 93.6911 64.6351 93.2049C63.1278 95.0273 61.9659 97.3083 61.3105 100.298C63.5878 99.4595 65.5576 98.6467 67.3093 97.8511C65.6451 99.7986 64.374 102.264 63.7472 105.554C66.9534 104.272 69.5613 103.047 71.7594 101.878C69.7444 104.032 68.2452 106.803 67.6501 110.665C71.5537 108.941 74.5486 107.345 76.9838 105.843C74.1871 108.187 72.0366 111.303 71.2947 116.116C76.3954 113.865 79.9551 111.822 82.7246 109.932C81.5352 112.337 80.9048 115.154 81.2068 118.666C86.1365 114.884 89.2593 111.823 91.5831 109.126C91.4263 110.868 91.55 112.762 92.0684 114.857C95.6074 108.776 99.1244 107.001 102.764 104.972C96.9668 107.891 97.8262 110.088 97.8262 112.637C102.249 107.98 108.416 103.041 110.303 99.9474C107.78 103.735 106.754 107.322 106.09 110.489C93.1853 117.314 85.328 119.097 76.5191 121.825C79.9359 123.079 83.5976 124.306 82.0843 126.048L78.0472 130.075C80.6276 129.273 83.2587 128.128 85.5432 129.693C85.319 131.81 82.6437 132.878 80.3599 134.112C84.3805 132.663 85.25 132.998 86.3071 133.338C86.8353 135.874 85.0025 137.238 83.8085 138.913C93.9358 131.213 107.15 125.13 116.456 122.589C129.546 118.181 146.424 113.599 151.014 102.425L155.619 83.9945C161 78.1704 165.95 72.1307 168.298 64.7903C183.283 61.8913 195.399 62.9379 208.039 63.2622C206.887 63.0702 169.445 56.7264 169.445 56.7264C158.502 41.7548 142.191 51.9313 136.817 66.7209C135.461 70.4538 127.723 70.455 125.481 66.7107C116.614 47.6211 89.6869 27.4384 66.7726 20.0001V20L66.7719 20.0002Z" fill="#008080"/>
<path d="M155.177 59.0692L155.079 59.2267C154.691 59.9501 154.034 60.4439 153.11 60.7426C152.187 61.0412 151.004 61.1369 149.626 61.0772L148.76 61.0378L149.39 61.6482C149.709 61.9558 149.799 62.2013 149.803 62.4159C149.808 62.6305 149.715 62.8623 149.508 63.1246C149.093 63.6494 148.269 64.2191 147.5 64.798L147.244 64.9751L147.421 65.2311C148.062 66.2151 148.356 66.9726 148.425 67.554C148.494 68.1355 148.359 68.5526 148.09 68.9123C147.553 69.6321 146.375 70.1198 145.314 70.7235L145.118 70.8219L145.157 71.0582C145.248 71.6116 145.099 72.0639 144.704 72.5149C144.309 72.9658 143.645 73.3959 142.755 73.7749L142.519 73.8733L142.558 74.1293C142.736 75.3144 143.092 76.3457 143.838 77.0034C144.52 77.6052 145.553 77.7638 146.87 77.4955C147.099 78.7589 147.428 79.9078 148.189 80.6651C148.959 81.4326 150.18 81.6596 151.811 81.236C152.178 82.1208 152.715 82.7513 153.327 83.1652C153.999 83.6197 154.878 83.803 155.6 84.0275L156.028 83.567C155.311 83.3443 154.252 83 153.681 82.614C153.11 82.2281 152.646 81.6986 152.323 80.7833L152.224 80.4683L151.909 80.5667C150.232 81.0822 149.302 80.8501 148.661 80.2123C148.021 79.5746 147.661 78.4217 147.441 77.0822L147.382 76.7278L147.027 76.8262C145.645 77.187 144.828 77.0025 144.271 76.5112C143.751 76.0524 143.443 75.2389 143.267 74.2276C144.068 73.8573 144.755 73.4522 145.196 72.9481C145.628 72.4555 145.814 71.8475 145.787 71.2157C146.764 70.6781 147.943 70.2162 148.622 69.3061C148.977 68.8303 149.161 68.2049 149.075 67.4753C148.996 66.8115 148.671 66.0446 148.11 65.1326C148.799 64.6254 149.546 64.117 150.02 63.5183C150.283 63.1855 150.481 62.8171 150.472 62.3963C150.468 62.1642 150.245 61.9527 150.118 61.7269C151.316 61.7426 152.407 61.6637 153.307 61.3725C154.256 61.0658 155.001 60.5068 155.492 59.7386C156.91 59.7457 158.378 60.0575 159.863 60.2504C161.388 60.4487 162.94 60.5019 164.41 59.8567L164.135 59.2465C162.834 59.8173 161.445 59.7936 159.961 59.6008C158.477 59.408 156.931 59.058 155.374 59.0693H155.177L155.177 59.0692Z" fill="white"/>
<path d="M160.686 58.8242C160.686 60.3691 159.434 61.6215 157.889 61.6215C156.344 61.6215 155.092 60.3691 155.092 58.8242C155.092 57.2794 156.344 56.0269 157.889 56.0269C159.434 56.0269 160.686 57.2793 160.686 58.8242Z" fill="white" stroke="white" stroke-width="0.660673"/>
<path d="M169.041 56.2C166.529 59.467 165.898 58.6232 164.369 59.1709L164.113 59.2693L164.153 59.5449C164.741 62.8263 166.686 63.8689 168.204 65.0616L168.288 64.7962L168.692 64.7193C167.171 63.5236 165.506 62.5109 164.901 59.7221C166.014 59.4587 167.077 59.7955 169.448 56.7101L169.041 56.2001V56.2Z" fill="white"/>
<path d="M72.3442 33.8794C77.0896 36.8218 84.8996 39.856 89.9155 43.0258C92.6748 44.7827 95.1532 46.5334 97.0813 48.0457C99.0094 49.5582 100.435 51.1207 100.96 51.6287C101.484 52.1367 101.84 51.8966 101.491 51.2349C101.142 50.5733 99.4247 49.0436 97.4751 47.5142C95.5255 45.9849 93.0455 44.2419 90.2698 42.4745C84.7184 38.9398 78.2029 35.7793 72.3445 33.879L72.3442 33.8794Z" fill="white"/>
<path d="M71.4905 27.0505C73.4798 27.5099 76.4158 29.2065 79.6806 31.0217C82.9455 32.8369 86.5038 35.0707 89.7597 37.2426C93.0158 39.4145 95.5263 41.3154 97.5332 42.8467C99.439 44.4776 100.38 45.5337 100.745 45.5305C100.795 45.5405 100.844 45.5413 100.922 45.5305C101 45.5197 101.131 45.4596 101.197 45.3336C101.264 45.2078 101.238 45.102 101.217 45.0384C101.196 44.9747 101.185 44.941 101.158 44.9005C101.05 44.7388 100.886 44.5874 100.646 44.369C100.167 43.9323 99.3739 43.2901 98.3626 42.5185C96.3399 40.9752 93.4007 38.8705 90.1338 36.6913C86.8668 34.5121 83.2834 32.2591 79.9955 30.4311C78.8267 29.998 73.095 26.9668 71.4901 27.0504H71.49L71.4905 27.0505Z" fill="white"/>
<path d="M68.7717 39.5781C74.8623 42.0641 83.5268 44.9843 89.3101 48.6194C92.4175 50.5927 95.124 52.5583 97.1452 54.171C98.1558 54.9773 98.9999 55.7021 99.6257 56.2774C100.252 56.8528 100.604 57.3751 100.807 57.5177C101.23 57.8161 101.555 57.6178 101.358 57.1436C101.21 56.7855 100.72 56.3748 100.078 55.7852C99.4372 55.1957 98.5789 54.4732 97.5586 53.6591C95.518 52.031 92.7937 50.0355 89.6644 48.0484C83.406 44.0743 75.9242 40.5803 68.772 39.5777L68.7717 39.5781Z" fill="white"/>
<path d="M64.0847 45.103C68.8314 45.1061 78.6366 49.4509 82.7696 51.6284C89.4708 55.2022 95.5645 59.7963 98.9323 63.0068C99.3057 63.3629 99.8513 63.0487 99.4245 62.5541C96.2963 58.9293 89.8355 54.6575 83.0847 51.0571C76.3339 47.4567 69.3437 45.0973 64.0845 45.1026L64.0847 45.103Z" fill="white"/>
<path d="M61.342 51.355C68.4781 52.3992 77.0321 55.2796 83.2644 58.4007C86.7423 60.1666 89.8436 62.058 92.2219 63.7357C94.5999 65.4134 96.3558 67.3023 96.7891 67.791C97.2224 68.2798 97.7385 68.3002 97.3403 67.4367C96.9421 66.5732 95.0053 64.8843 92.5959 63.1845C90.1866 61.4846 87.0651 59.5897 83.5601 57.81C76.5498 54.2506 68.5664 51.4504 61.3422 51.3549L61.342 51.355Z" fill="white"/>
<path d="M63.6973 56.6664C61.9246 56.5118 60.3289 56.8753 58.7031 57.0785C65.0438 56.4843 73.9103 59.3961 79.8208 62.1196C86.7832 65.3836 92.5643 69.8648 95.3339 72.7109C95.7674 73.1564 96.0738 72.5887 95.8457 72.2974C93.267 69.0052 87.1261 64.8048 80.0964 61.5094C74.8244 59.0378 69.0159 57.1307 63.6973 56.6666V56.6664Z" fill="white"/>
<path d="M59.1921 62.381C65.4318 62.8435 73.7859 64.3376 79.6379 67.0239C85.5234 69.7767 89.9897 73.346 92.2368 75.3712C92.5826 75.6828 93.1941 75.4621 92.7093 74.8987C90.6585 72.5159 85.8899 69.2199 79.9326 66.4337C73.9756 63.6474 66.7394 61.8629 59.1919 62.3813L59.1921 62.381Z" fill="white"/>
<path d="M64.7959 67.5738C63.4794 67.5293 62.8619 67.7756 61.5918 67.9128C65.8268 68.0994 72.5569 69.2257 76.2733 70.4874C81.0962 72.1606 85.0617 74.6811 87.3175 76.6493C87.753 77.0293 88.0777 76.5195 87.79 76.1965C85.6774 73.8258 81.3838 71.5554 76.4897 69.8574C72.8194 68.584 68.7454 67.7074 64.7959 67.5738H64.7959Z" fill="white"/>
<path d="M64.6142 73.7152C73.6673 74.3261 79.1416 75.9212 83.3378 79.6802C83.6522 79.9618 84.1486 79.5741 83.8103 79.2077C79.5041 74.5422 71.0257 73.2422 64.614 73.7153L64.6142 73.7152Z" fill="white"/>
<path d="M71.5854 79.1531C68.841 78.9323 66.5446 79.5321 64.0435 80.3649C71.3629 79.1983 74.4063 79.7577 79.9517 82.3619C80.5839 82.6588 80.5468 81.9594 80.2667 81.791C77.3208 80.0203 74.3293 79.3737 71.585 79.1531L71.5854 79.1531Z" fill="white"/>
<path d="M71.3246 84.2512C68.7298 84.4813 66.5265 85.3723 64.71 86.8497C71.9583 84.0559 73.9615 84.6118 79.5053 86.1834C80.2344 86.3901 80.0078 85.6878 79.7218 85.5731C76.4024 84.2422 73.9197 84.0211 71.3247 84.2511L71.3246 84.2512Z" fill="white"/>
<path d="M85.686 88.7405C81.8187 88.3224 77.4619 88.7914 73.638 89.4886C69.8143 90.1859 66.5257 91.6025 64.6694 93.1124C71.027 90.4274 72.1856 90.4331 73.7566 90.1383C77.5237 89.4513 81.2578 89.1835 85.6472 89.3902C86.0453 89.409 86.0249 88.7771 85.6866 88.7405H85.686Z" fill="white"/>
<path d="M87.9307 91.8706C83.7397 91.7123 79.411 92.7494 75.6661 93.8196C71.9216 94.8898 69.1422 96.3501 67.3093 97.8408C71.0179 96.0569 74.469 94.8494 75.8432 94.4495C79.5354 93.3942 83.2602 92.4807 87.9702 92.5399C88.3361 92.5446 88.5726 91.8948 87.9308 91.8706L87.9307 91.8706Z" fill="white"/>
<path d="M91.3532 94.4472C87.406 95.0299 83.2675 96.1957 79.6594 97.4197C76.0516 98.6438 73.4836 100.098 71.8083 101.838C76.0996 99.3746 78.4597 98.5109 79.8561 98.0301C83.4196 96.821 86.747 95.9797 91.4709 95.0968C92.0379 94.9908 91.5826 94.4132 91.3528 94.4472H91.3532Z" fill="white"/>
<path d="M93.3607 97.7352C85.445 98.9961 80.3153 102.411 77.0549 105.798C82.1078 101.991 85.6228 99.9451 93.4983 98.3846C93.9967 98.2858 93.8462 97.6575 93.3605 97.7349L93.3607 97.7352Z" fill="white"/>
<path d="M97.2179 100.628C89.2563 101.854 84.6649 106.694 82.7529 109.889C87.7902 104.857 91.7105 102.118 97.3554 101.278C97.9267 101.193 97.7809 100.541 97.2176 100.628L97.2179 100.628Z" fill="white"/>
<path d="M99.6206 103.149C98.3789 103.304 96.6892 104.184 95.0928 105.197C93.4963 106.21 92.2918 107.442 91.5735 109.03C93.4965 107.045 94.2663 106.508 95.4471 105.748C96.9798 104.775 98.5244 104.163 99.7781 103.799C100.366 103.628 99.9216 103.112 99.6206 103.149H99.6206Z" fill="white"/>
<path d="M160.686 58.8242C160.686 60.3691 159.434 61.6215 157.889 61.6215C156.344 61.6215 155.092 60.3691 155.092 58.8242C155.092 57.2794 156.344 56.0269 157.889 56.0269C159.434 56.0269 160.686 57.2793 160.686 58.8242Z" fill="white" stroke="white" stroke-width="0.660673"/>
<path d="M160.686 58.8242C160.686 60.3691 159.434 61.6215 157.889 61.6215C156.344 61.6215 155.092 60.3691 155.092 58.8242C155.092 57.2794 156.344 56.0269 157.889 56.0269C159.434 56.0269 160.686 57.2793 160.686 58.8242Z" fill="#37C871" stroke="white" stroke-width="0.660673"/>
</svg>

        </g>
         
        <g transform="translate(1800, 300)">
          <svg width="256" height="256" viewBox="0 0 256 256" fill="none" xmlns="http://www.w3.org/2000/svg">
<rect width="256" height="256" rx="60" fill="#242938"/>
<path d="M89.7778 193.926C82.5397 188.233 74.8187 182.775 69.5426 175.089C58.4409 161.535 49.893 145.842 44.0494 129.352C40.5173 118.628 39.3076 107.132 34.7543 96.8229C29.9911 89.3355 35.5705 81.1506 43.772 78.7706C47.4235 78.0698 53.8439 74.6256 46.0938 77.0873C39.1456 82.1851 38.4732 72.46 45.598 71.8441C50.4604 71.1978 52.2503 67.2173 50.5875 63.634C45.368 60.2303 63.2441 56.4895 54.2496 51.4107C44.8797 41.3017 67.356 39.3557 61.8107 50.8365C60.4834 59.6647 77.5161 49.2184 73.5641 59.4131C77.5809 64.3089 88.6059 60.5274 88.3324 67.3958C94.1838 67.798 96.192 72.7214 101.685 73.0993C107.378 75.6702 117.698 77.6961 119.635 84.1113C113.987 88.5828 100.909 74.875 100.28 87.2525C101.986 105.537 101.552 124.373 108.242 141.785C111.406 152.328 119.077 160.628 126.004 168.839C132.633 176.881 141.611 182.543 150.762 187.31C158.79 191.096 167.444 193.607 176.193 195.182C179.741 192.468 186.006 182.378 191.542 186.633C191.804 191.414 180.555 196.627 191.012 196.098C197.153 194.246 201.412 200.848 206.469 194.893C211.128 200.411 225.833 191.367 222.518 202.647C218.036 205.539 211.498 203.791 207.009 207.769C199.606 204.072 193.713 211.078 185.518 210.192C176.417 211.822 167.158 212.48 157.931 212.494C142.794 211.298 127.336 210.794 112.936 205.524C104.824 203.167 96.9075 198.547 89.7778 193.926V193.926ZM102.562 199.465C110.483 202.891 118.229 206.501 126.91 207.59C140.683 209.506 154.906 212.452 168.728 209.765C162.472 206.94 156.005 210.865 149.772 207.745C142.298 209.353 134.276 207.335 126.678 206.341C118.036 202.492 108.711 199.846 100.619 194.849C90.5074 191.156 105.848 199.586 108.579 200.268C114.9 203.856 101.628 198.429 99.7569 196.938C94.4627 193.968 93.788 194.589 99.2327 197.605C100.329 198.246 101.413 198.919 102.562 199.465V199.465ZM87.4891 188.813C95.165 191.657 87.4552 183.416 83.9378 183.894C82.3794 181.191 77.9838 179.483 81.0845 178.03C75.507 179.967 75.2418 170.667 72.6201 171.996C66.7196 170.133 70.3236 163.532 63.2951 159.479C62.6535 155.208 56.3119 151.504 54.2892 145.062C53.3959 141.764 47.1246 132.292 50.977 141.107C54.2572 149.593 60.0284 156.86 64.8312 164.118C68.5605 171.029 72.9641 178.252 79.7559 182.564C82.0454 184.76 84.2559 188.125 87.4891 188.813ZM65.3763 164.535C65.6442 163.376 66.7801 167.044 65.3763 164.535V164.535ZM96.6817 192.222C98.3815 191.461 94.2375 191.263 96.6817 192.222V192.222ZM100.849 193.742C100.417 191.643 98.9464 194.915 100.849 193.742V193.742ZM106.064 195.917C108.547 193.553 102.237 194.427 106.064 195.917V195.917ZM115.004 200.9C116.513 198.669 110.174 200.058 115.004 200.9V200.9ZM97.8376 188.933C101.694 186.438 92.8561 188.899 97.8376 188.933V188.933ZM101.75 190.884C101.641 189.565 100.356 191.475 101.75 190.884V190.884ZM121.306 203.09C124.449 205.074 139.663 207.438 130.137 203.903C128.543 204.239 112.472 199.358 121.306 203.09ZM90.2609 178.911C89.9552 177.588 85.3813 177.451 90.2609 178.911V178.911ZM99.3646 184.217C101.734 182.565 94.4471 182.942 99.3646 184.217V184.217ZM107.022 188.912C110.422 187.63 101.507 187.624 107.022 188.912V188.912ZM86.5564 174.877C90.2453 177.706 101.433 175.239 92.2057 173.188C88.0058 170.949 78.5402 169.417 84.9922 174.538L86.5564 174.877L86.5564 174.877ZM112.209 190.533C113.745 187.915 105.765 189.038 112.209 190.533V190.533ZM104.414 184.338C113.434 186.89 96.8286 178.634 102.188 183.399L103.376 183.937L104.414 184.338L104.414 184.338ZM120.042 193.371C128.585 193.453 112.326 192.193 120.042 193.371V193.371ZM83.2695 169.934C82.9359 168.343 81.1614 170.068 83.2695 169.934V169.934ZM134.492 201.477C134.72 198.603 131.705 203.615 134.492 201.477V201.477ZM97.8478 178.862C97.3311 177.349 95.1786 178.8 97.8478 178.862V178.862ZM84.0797 168.936C88.984 168.641 77.3653 166.775 84.0797 168.936V168.936ZM67.7695 158.393C67.1591 156.042 62.4328 154.167 67.7695 158.393V158.393ZM110.588 185.567C109.689 184.542 110.165 185.791 110.588 185.567V185.567ZM137.239 201.922C137.154 200.356 135.788 202.514 137.239 201.922V201.922ZM108.229 183.131C108.709 181.114 104.047 182.52 108.229 183.131V183.131ZM88.374 170.548C92.0226 170.157 82.5292 168.081 88.374 170.548V170.548ZM121.96 191.418C127.646 189.165 116.419 190.318 121.96 191.418V191.418ZM104.49 179.559C111.043 180.404 96.6934 175.102 103.052 179.084L104.49 179.559L104.49 179.559V179.559ZM127.264 193.562C133.382 189.904 131.365 202.126 137.644 194.594C143.837 190.072 132.295 200.185 139.928 195.401C145.448 191.709 153.601 197.151 158.752 198.926C162.456 198.744 166.056 202.129 169.854 200.07C177.163 198.101 155.56 197.15 161.223 193.657C154.534 195.603 149.593 191.336 146.302 187.052C138.799 185.319 130.125 181.484 126.381 174.845C124.854 172.352 128.586 175.196 125.063 171.121C120.542 167.1 118.285 162.536 115.25 157.648C111.624 155.714 111.202 150.021 110.836 157.457C110.864 152.764 106.458 149.605 105.383 150.918C105.364 146.399 110.098 148.664 106.784 145.32C106.071 140.636 103.722 135.754 103.016 130.465C101.919 127.916 102.861 122.456 99.2719 128.227C97.9643 134.327 98.8379 120.732 100.871 125.215C103.541 120.64 99.9132 121.178 99.7646 121.813C101.503 117.954 100.865 112.479 99.311 114.567C100.237 110.476 100.775 99.5116 97.9243 101.455C99.6521 97.1768 101.201 81.88 93.7005 87.7122C90.6607 87.7549 85.3966 88.8156 82.9083 90.0531C90.7102 94.3538 82.1235 91.6063 78.9476 90.9227C78.5338 94.9021 75.3881 93.181 71.4582 93.22C77.7352 93.9966 68.4016 99.6398 64.8007 97.4478C60.1241 99.6829 68.8367 105.262 64.8945 106.987C65.379 109.588 57.73 106.048 58.3307 112.054C53.7907 110.144 57.7056 119.178 59.9769 116.123C67.6987 118.213 65.4129 122.977 65.6095 127.503C64.3514 130.141 59.3979 121.304 64.5063 121.714C60.4762 115.167 60.0483 119.347 56.6994 122.389C55.9203 122.609 65.2417 126.716 59.392 128.747C64.5385 129.541 64.6849 134.044 65.7326 136.894C68.8259 140.116 68.1928 133.337 71.8941 137.208C69.5519 133.759 59.4879 127.489 67.5908 129.5C67.5475 126.028 66.1253 123.229 68.6078 123.297C71.0662 118.845 66.0331 134.274 71.5744 128.616C73.1083 127.946 73.4883 124.158 76.2455 128.973C80.2501 132.913 77.692 135.768 72.0429 132.16C73.0536 135.589 79.5999 136.814 78.3697 142.176C79.6738 146.891 81.4985 145.155 83.0889 144.882C84.3365 149.464 85.045 146.095 85.1042 143.914C90.8167 145.137 89.4786 148.514 91.266 150.873C95.2024 152.65 85.6317 138.829 92.3898 146.717C99.5 153.137 95.0564 155.817 88.6756 154.788C92.7141 154.462 94.0165 160.248 99.0679 160.045C103.674 162.236 106.793 170.653 98.8531 167.149C96.0992 164.666 86.3536 161.603 94.3135 166.326C101.665 169.73 107.504 171.767 114.595 176.04C119.669 179.663 121.861 183.812 123.785 184.633C119.52 186.67 110.932 183.007 117.309 181.884C113.332 181.16 108.858 179.148 112.668 184.104C115.907 186.809 124.145 186.522 125.622 186.828C124.37 189.587 122.222 189.806 125.673 190.02C121.823 192.072 126.907 192.389 127.264 193.562H127.264ZM119.391 171.328C117.048 168.878 116.443 164.289 118.975 168.282C120.273 168.803 123.135 175.78 119.391 171.328H119.391ZM145.032 187.615C146.493 187.52 145.074 188.725 145.032 187.615V187.615ZM115.692 165.321C115.602 161.617 116.539 168.177 115.692 165.321V165.321ZM113.144 161.892C110.197 156.199 116.858 163.504 113.144 161.892V161.892ZM82.2613 140.577C83.9924 140.115 83.113 143.538 82.2613 140.577V140.577ZM106.84 153.899C107.903 149.907 108.089 157.249 106.84 153.899V153.899ZM89.4758 141.826C88.2518 139.623 92.0362 143.892 89.4758 141.826V141.826ZM104.378 146.603C101.586 140.348 106.354 143.186 104.995 147.628L104.378 146.603ZM78.6793 129.464C77.4313 127.413 75.3669 121.392 76.0315 119.554C76.6327 122.547 82.3966 132.435 78.8588 123.65C74.9493 116.286 83.5321 126.041 84.415 127.877C84.8261 129.705 82.0029 127.378 83.9158 131.663C80.4273 126.785 81.8564 134.357 78.6793 129.464V129.464ZM70.7371 123.992C71.064 119.221 72.5552 127.263 70.7371 123.992V123.992ZM74.3096 125.221C76.0143 121.621 77.2002 130.241 74.3096 125.221V125.221ZM65.7158 118.573C62.7589 115.635 60.6191 112.927 65.8542 116.75C67.8713 116.829 61.3725 110.59 66.34 114.769C71.5634 115.721 68.9193 123.333 65.7158 118.573ZM70.23 118.455C71.9472 116.754 71.1416 120.131 70.23 118.455V118.455ZM73.0076 119.346C70.4043 114.466 76.1672 121.392 73.0076 119.346V119.346ZM67.4859 114.069C58.8899 106.419 78.2873 118.069 68.8902 115.487L67.4858 114.069L67.4859 114.069V114.069ZM92.1147 128.379C88.3949 126.149 91.1289 112.677 92.3975 121.891C96.0137 120.721 92.1978 126.649 94.895 126.594C94.47 130.334 93.2633 131.679 92.1147 128.379ZM101.224 133.763C101.589 129.703 101.992 136.539 101.224 133.763V133.763ZM99.642 132.199C100.052 130.465 99.6844 134.242 99.642 132.199V132.199ZM69.1721 111.555C63.6498 103.936 85.2215 119.262 72.7091 113.488C71.4016 113.146 69.8285 113.024 69.1721 111.555ZM86.7142 120.856C86.1916 114.441 87.8813 121.919 86.714 120.856L86.7142 120.856ZM100.033 129.4C101.063 125.745 100.11 131.817 100.033 129.4V129.4ZM70.0181 108.647C73.3002 107.945 83.6198 114.412 74.1431 110.494C73.0902 109.329 70.8454 109.858 70.0181 108.647ZM98.2029 122.695C98.5537 116.135 100.162 118.776 98.215 123.634L98.203 122.695L98.2029 122.695H98.2029ZM72.4613 106.365C73.7986 104.403 68.9113 97.4957 73.1657 103.887C75.0041 105.348 78.4884 106.334 75.4121 106.949C80.2503 111.217 74.232 108.105 72.4613 106.365V106.365ZM96.8088 120.646C97.7327 113.173 97.6236 125.024 96.8088 120.646V120.646ZM69.6683 99.4626C70.6897 99.0261 70.2077 100.824 69.6683 99.4626V99.4626ZM76.0192 103.243C77.6536 99.813 79.0343 107.068 76.0192 103.243V103.243ZM93.9334 113.208C93.9161 111.891 94.2714 115.124 93.9334 113.208V113.208ZM92.8957 110.911C90.4093 104.777 95.2085 114.159 92.8957 110.911V110.911ZM91.369 106.889C90.9517 104.354 92.7875 110.073 91.369 106.889L91.369 106.889ZM93.8536 102.85C92.1474 99.8432 96.0083 89.5998 96.4391 95.9527C94.6382 100.903 95.9196 103.672 97.1759 97.0325C99.4959 91.8072 96.6747 107.344 93.8536 102.85L93.8536 102.85V102.85ZM96.407 87.6163C97.1507 86.703 96.572 88.7167 96.407 87.6163V87.6163ZM92.1429 171.638C91.1316 170.755 92.27 172.2 92.1429 171.638V171.638ZM100.927 176.082C105.813 177.335 105.788 175.321 101.372 174.723C98.9969 172.513 91.5019 170.17 98.2103 174.449C98.6546 175.574 100.058 175.548 100.927 176.082V176.082ZM83.5787 164.559C86.2706 166.566 93.7181 170.248 87.4135 165.323C89.5391 162.853 83.345 161.539 85.3997 159.887C80.1734 156.689 81.2769 156.973 84.9384 157.074C78.6574 154.266 85.8451 154.476 85.5066 153.038C83.0847 152.559 73.4769 148.767 79.1291 153.349C73.3833 150.42 77.7599 154.441 76.0232 154.016C70.1477 152.413 81.2557 158.49 75.0901 156.982C78.4608 159.653 84.163 163.824 76.5152 159.809C75.5075 161.259 81.988 163.458 83.5787 164.559ZM92.7659 169.837C103.937 173.436 87.2893 165.439 92.7659 169.837V169.837ZM139.795 198.327C139.939 196.111 138.269 200.218 139.795 198.327V198.327ZM144.629 200.362C147.206 197.864 144.734 204.34 148.9 199.75C148.945 196.465 148.771 194.524 144.113 198.515C142.829 199.227 142.256 202.255 144.629 200.362V200.362ZM67.8987 152.174C67.1072 149.062 62.3506 149.078 67.8987 152.174V152.174ZM73.0602 155.556C71.1435 152.378 66.2214 152.679 73.0602 155.556V155.556ZM102.424 173.265C105.291 175.811 115.592 175.133 105.907 173.578C104.472 171.457 96.798 171.968 102.424 173.265ZM142.791 198.194C147.203 194.492 138.515 199.846 142.791 198.194V198.194ZM151.967 204.5C151.995 203.312 150.066 205.021 151.967 204.5V204.5ZM151.982 202.837C156.868 197.66 147.247 203.143 151.982 202.837H151.982ZM55.2036 141.545C51.039 135.603 52.6148 132.932 48.5987 128.081C47.8384 124.371 41.7091 115.951 45.4285 124.871C48.8352 130.087 49.8476 138.164 55.2036 141.545V141.545ZM150.449 201.191C159.438 195.381 146.759 198.66 150.449 201.191V201.191ZM157.311 203.88C161.813 200.014 154.464 203.071 157.311 203.88V203.88ZM66.3687 145.606C67.6571 143.689 63.0414 145.36 66.3687 145.606V145.606ZM155.878 202.044C160.237 199.234 154.874 199.665 155.088 202.303L155.878 202.044H155.878ZM96.7253 164.76C96.5755 162.862 94.4236 164.921 96.7253 164.76V164.76ZM100.381 166.863C99.2191 164.514 98.5947 167.232 100.381 166.863V166.863ZM162.872 203.943C168.456 199.915 159.487 203.172 161.7 204.706L162.872 203.943ZM160.734 202.91C165.283 199.098 155.931 204.599 160.734 202.91V202.91ZM171.659 210.185C174.713 208.14 167.948 209.523 171.659 210.185V210.185ZM69.1698 144.223C73.2638 145.141 85.5304 154.306 78.2936 144.857C74.5872 143.76 76.8101 134.7 73.0295 136.304C75.567 140.543 75.1172 142.347 69.7896 139.675C63.0937 136.406 66.0267 141.294 67.3353 142.642C65.552 143.047 69.6942 144.189 69.1698 144.223V144.223ZM50.5177 129.493C51.2506 126.462 43.7691 112.816 46.9848 122.656C48.1456 124.717 48.0276 128.623 50.5177 129.493ZM84.7523 150.599C82.6442 148.836 84.6521 150.35 84.7523 150.599V150.599ZM89.9437 151.808C89.941 148.596 84.2054 150.504 89.9437 151.808V151.808ZM134.931 180.168C134.073 177.974 131.539 180.117 134.931 180.168L134.931 180.168ZM137.091 181.746C136.772 180.518 135.845 181.983 137.091 181.746V181.746ZM154.922 192.977C156.637 191.71 152.782 192.816 154.922 192.977V192.977ZM59.8346 131.872C64.7399 129.972 54.5789 130.517 59.8346 131.872V131.872ZM130.97 176.688C130.916 173.512 127.843 177.475 130.97 176.688V176.688ZM57.8965 127.355C61.0474 126.291 54.9816 126.654 57.8965 127.355V127.355ZM67.0422 131.786C66.9851 130.742 66.0748 132.181 67.0422 131.786V131.786ZM178.593 200.19C182.645 199.369 191.878 202.252 193.371 199.116C188.45 198.996 176.347 195.644 175.774 199.916L176.852 200.085L178.593 200.19V200.19ZM69.949 132.518C70.0194 129.3 67.4396 132.398 69.949 132.518V132.518ZM45.9025 115.838C44.8104 109.706 41.749 114.91 45.9025 115.838V115.838ZM51.6367 117.279C51.7071 115.31 46.3882 115.507 51.6367 117.279V117.279ZM54.9136 118.888C53.9664 118.121 54.1722 119.858 54.9136 118.888V118.888ZM75.5326 132.115C76.5033 131.224 73.2345 131.455 75.5326 132.115V132.115ZM52.731 115.259C52.1768 110.628 46.0896 114.565 52.731 115.259V115.259ZM40.975 107.631C40.8078 105.493 39.8294 108.437 40.975 107.631V107.631ZM42.7237 106.31C42.4384 103.776 41.2223 106.632 42.7237 106.31V106.31ZM52.3855 112.077C56.4711 110.472 44.9437 108.758 51.5507 111.774L52.3855 112.077ZM181.694 191.949C184.309 189.552 178.371 191.208 181.694 191.949V191.949ZM197.316 200.047C198.364 196.947 194.677 200.455 197.316 200.047V200.047ZM53.3729 107.013C53.8033 104.015 50.1339 107.608 53.3729 107.013V107.013ZM39.6265 97.8031C38.888 93.5698 38.989 86.1392 46.0524 88.6503C36.6239 90.5222 52.5779 100.369 50.5632 92.5946C54.5277 92.7887 58.3186 90.2516 56.2381 94.1018C64.0492 93.2391 69.4646 86.4658 77.0096 87.4149C82.8868 86.6372 89.3127 86.0473 95.6461 83.6816C100.853 83.3064 105.866 77.7 103.012 74.3769C95.9106 73.7761 88.4772 74.6646 80.6283 76.2247C71.9308 78.0327 64.0306 81.468 55.255 82.9425C46.7013 84.0916 56.9755 86.1084 54.5253 86.5577C50.0619 88.1064 59.8484 89.1507 53.9467 90.7834C50.3019 90.0904 46.5082 88.838 48.0651 84.9971C39.8714 86.0604 32.6715 89.461 39.145 97.7992L39.6265 97.8029L39.6265 97.8026V97.8031ZM59.3703 87.7476C61.2914 80.6703 69.6628 93.5714 62.5192 88.6876C61.6659 88.0491 60.2626 87.5281 59.3703 87.7476ZM59.7441 84.3163C62.5168 82.2507 61.218 85.4744 59.7441 84.3163V84.3163ZM63.2648 84.3722C63.5151 81.1156 71.3244 86.0963 64.5525 85.5446L63.2648 84.3722ZM68.0809 82.4358C69.8396 80.3808 68.5864 84.2637 68.0809 82.4358V82.4358ZM69.3129 81.6108C72.2414 78.0921 85.8973 79.3651 75.9017 81.2677C73.2225 79.2507 71.1688 82.457 69.3129 81.6108ZM87.1342 78.8637C86.6887 69.2521 95.988 82.2793 87.1342 78.8637V78.8637ZM92.1909 78.836C94.0397 73.9917 99.3652 76.8921 93.0464 77.8626C93.1836 78.3781 92.8611 80.3635 92.1909 78.836ZM51.3789 104.527C56.9028 101.144 45.5148 101.592 51.3789 104.527V104.527ZM55.4632 105.661C57.3999 103.602 51.255 104.826 55.4632 105.661V105.661ZM43.429 97.1207C46.5853 94.696 39.6939 96.1988 43.429 97.1207V97.1207ZM206.536 199.161C206.628 196.348 204.124 200.428 206.536 199.161V199.161ZM189.963 187.85C190.434 184.612 187.833 188.133 189.963 187.85V187.85ZM211.094 200.251C215.507 200.266 224.465 198.881 214.863 198.885C213.356 199.12 206.084 199.07 211.094 200.251L211.094 200.251V200.251ZM59.0559 103.676C62.6273 103.431 64.6436 99.7368 58.3651 99.9491C48.6345 98.9417 66.9503 103.281 57.1169 102.04C55.7955 102.915 58.9791 103.918 59.0559 103.676ZM62.2013 105.268C61.8284 102.975 61.0969 106.487 62.2013 105.268V105.268ZM65.9324 95.3192C67.4823 93.3969 63.7878 94.8053 65.9324 95.3192V95.3192ZM54.0548 75.4651C60.4288 73.2967 69.1451 70.8601 72.1547 76.5327C69.0918 72.8463 70.9186 69.2172 73.8115 74.6071C77.9022 80.0605 79.95 72.1267 77.2894 70.2976C80.3214 74.0648 83.7699 75.845 79.3194 70.5357C84.1556 64.7182 69.6358 71.2975 66.3356 71.2312C64.7477 71.9439 49.942 75.0071 54.0548 75.4651V75.4651ZM57.7903 68.3109C61.4254 65.5672 70.3626 69.9429 64.6277 65.5842C64.067 65.0889 52.0682 68.8895 57.7903 68.3109V68.3109ZM71.0429 68.858C75.2974 68.9666 69.2078 63.1426 74.2775 65.7816C73.4449 63.0616 68.375 62.5524 65.8963 61.4656C64.4944 63.9525 68.7499 68.8914 71.0429 68.858ZM60.1141 56.8279C61.5859 54.8327 57.5346 57.8395 60.1141 56.8279V56.8279ZM65.5306 58.1244C72.3867 57.215 63.783 55.1719 64.1491 58.0513L65.5306 58.1244V58.1244V58.1244ZM55.4168 50.2106C50.5894 43.9088 64.4954 51.2699 59.5908 44.6717C55.4627 41.3845 51.4959 48.3709 55.4168 50.2106ZM117.369 83.5798C119.583 79.6548 108.228 78.2891 115.877 82.1887C116.582 82.4241 116.422 83.8513 117.369 83.5798Z" fill="white"/>
</svg>

        </g>
         
        <g transform="translate(2100, 300)">
          <svg xmlns="http://www.w3.org/2000/svg" width="256" height="256" fill="none" viewBox="0 0 256 256"><rect width="256" height="256" fill="#242938" rx="60"/><path stroke="#fff" stroke-width="10" d="M217 69H39C33.4772 69 29 73.4772 29 79V177C29 182.523 33.4772 187 39 187H217C222.523 187 227 182.523 227 177V79C227 73.4772 222.523 69 217 69Z"/><path fill="#fff" d="M54 162V94H74L94 119L114 94H134V162H114V123L94 148L74 123V162H54ZM179 162L149 129H169V94H189V129H209L179 162Z"/></svg>
        </g>
         
        <g transform="translate(2400, 300)">
          <svg xmlns="http://www.w3.org/2000/svg" width="256" height="256" fill="none" viewBox="0 0 256 256"><rect width="256" height="256" fill="#242938" rx="60"/><path fill="#242938" fill-rule="evenodd" d="M203.819 68.8354L140.679 31.3552C133.143 26.8816 123.854 26.8816 116.318 31.3552L53.1774 68.8354C45.6434 73.3091 41 81.575 41 90.5223V165.483C41 174.428 45.6434 182.698 53.1796 187.172L116.32 224.645C120.088 226.883 124.29 227.999 128.499 227.999C132.706 227.999 136.909 226.883 140.677 224.645L203.817 187.172C211.353 182.698 215.999 174.428 215.999 165.483V90.5223C215.999 81.575 211.353 73.3091 203.819 68.8354Z" clip-rule="evenodd"/><path fill="#fff" fill-rule="evenodd" d="M118.527 220.808L55.3866 183.334C49.2108 179.668 45.3744 172.828 45.3744 165.482V90.5234C45.3744 83.1768 49.2109 76.3374 55.3844 72.673L118.527 35.1928C121.554 33.3958 125.002 32.4455 128.499 32.4455C131.994 32.4455 135.442 33.3958 138.472 35.1928L201.612 72.673C206.816 75.7619 210.326 81.1109 211.313 87.1103C209.219 82.6411 204.496 81.4262 198.993 84.6409L139.259 121.537C131.811 125.891 126.319 130.777 126.314 139.758V213.362C126.31 218.74 128.482 222.223 131.818 223.233C130.722 223.423 129.617 223.555 128.499 223.555C125.002 223.555 121.554 222.605 118.527 220.808ZM203.819 68.8343L140.679 31.3563C136.911 29.1184 132.704 28.0005 128.499 28.0005C124.293 28.0005 120.086 29.1184 116.318 31.3563L53.1774 68.8343C45.6434 73.308 41 81.5761 41 90.5234V165.482C41 174.427 45.6434 182.697 53.1796 187.171L116.32 224.646C120.09 226.882 124.293 228 128.499 228C132.706 228 136.909 226.882 140.677 224.646L203.819 187.171C211.355 182.697 215.999 174.427 215.999 165.482V90.5234C215.999 81.5761 211.355 73.308 203.819 68.8343Z" clip-rule="evenodd"/><path fill="#47B353" fill-rule="evenodd" d="M187.267 172.729L171.545 182.139C171.128 182.382 170.822 182.655 170.819 183.156V187.27C170.819 187.773 171.157 187.982 171.573 187.737L187.539 178.034C187.955 177.791 188.019 177.326 188.022 176.825V173.196C188.022 172.696 187.684 172.486 187.267 172.729Z" clip-rule="evenodd"/><path fill="#242938" fill-rule="evenodd" d="M153.788 138.098C154.297 137.84 154.716 138.157 154.723 138.823L154.776 144.262C157.053 143.356 159.031 143.114 160.823 143.528C161.212 143.632 161.384 144.161 161.225 144.789L160.028 149.609C159.935 149.973 159.73 150.341 159.483 150.57C159.379 150.672 159.273 150.751 159.168 150.804C159.007 150.886 158.848 150.912 158.696 150.881C157.878 150.696 155.933 150.271 152.873 151.821C149.663 153.446 148.54 156.235 148.562 158.305C148.589 160.777 149.857 161.526 154.235 161.601C160.069 161.698 162.59 164.247 162.651 170.123C162.711 175.893 159.631 182.089 154.919 185.886L155.023 191.27C155.029 191.918 154.608 192.661 154.099 192.919L150.91 194.756C150.399 195.014 149.98 194.696 149.973 194.048L149.918 188.752C147.187 189.887 144.419 190.161 142.651 189.451C142.318 189.321 142.175 188.829 142.307 188.269L143.463 183.401C143.555 183.017 143.758 182.633 144.034 182.389C144.131 182.294 144.232 182.221 144.333 182.17C144.516 182.078 144.695 182.058 144.847 182.115C146.752 182.757 149.189 182.457 151.532 181.271C154.509 179.765 156.5 176.729 156.469 173.713C156.44 170.976 154.959 169.839 151.356 169.812C146.77 169.825 142.495 168.921 142.424 162.17C142.367 156.612 145.257 150.828 149.832 147.171L149.775 141.736C149.768 141.068 150.176 140.333 150.701 140.069L153.788 138.098Z" clip-rule="evenodd"/></svg>
        </g>
        
  </svg>
  